<?xml version="1.0" encoding="utf-8"?>
<!-- Generator: Adobe Illustrator 16.0.0, SVG Export Plug-In . SVG Version: 6.00 Build 0)  -->
<!DOCTYPE svg PUBLIC "-//W3C//DTD SVG 1.1//EN" "http://www.w3.org/Graphics/SVG/1.1/DTD/svg11.dtd">
<svg version="1.1" id="Calque_1" xmlns="http://www.w3.org/2000/svg" xmlns:xlink="http://www.w3.org/1999/xlink" x="0px" y="0px"
	 width="612px" height="792px" viewBox="0 0 612 792" enable-background="new 0 0 612 792" xml:space="preserve">
<g>
	<path d="M579.575,250.599h-56.741c-20.265,0-28.371-22.291-16.212-36.477l40.529-40.53c14.186-12.159,14.186-32.424,0-44.583
		L496.49,76.321c-12.158-10.133-32.424-10.133-44.582,0l-40.53,40.53c-14.186,14.186-36.477,4.053-36.477-14.186V45.924
		c0-18.238-14.186-32.424-32.424-32.424h-72.954c-18.238,0-32.424,14.186-32.424,32.424v56.742
		c0,20.265-22.291,28.371-36.477,14.186l-40.529-38.503c-12.159-12.159-32.424-12.159-44.583,0L62.822,129.01
		c-12.159,12.159-12.159,32.424,0,44.583l40.529,40.53c14.186,14.186,6.08,36.477-14.186,36.477H32.424
		C14.186,250.599,0,264.785,0,283.023v72.953C0,374.215,14.186,388.4,32.424,388.4h56.741c20.266,0,28.371,22.291,14.186,36.478
		l-38.503,40.529c-14.186,12.159-14.186,32.424,0,44.583l50.662,50.662c12.159,12.159,32.424,12.159,44.583,0l40.529-38.503
		c14.186-14.186,36.477-6.08,36.477,14.185v56.742c0,18.238,14.186,32.424,32.424,32.424h72.954
		c18.238,0,32.424-14.186,32.424-32.424v-56.742c0-20.265,22.291-28.37,36.477-14.185l40.53,38.503
		c12.158,12.159,32.424,12.159,44.582,0l50.662-50.662c14.186-12.159,14.186-32.424,0-44.583l-38.503-40.529
		c-14.186-14.187-6.079-36.478,14.186-36.478h56.741c18.239,0,32.425-14.185,32.425-32.424v-72.953
		C612,264.785,597.815,250.599,579.575,250.599z M306,203.99c62.82,0,115.51,52.688,115.51,115.51S368.821,435.01,306,435.01
		c-62.821,0-115.51-52.688-115.51-115.51S243.179,203.99,306,203.99z"/>
</g>
</svg>
