<?xml version="1.0" encoding="utf-8"?>
<!-- Generator: Adobe Illustrator 16.0.0, SVG Export Plug-In . SVG Version: 6.00 Build 0)  -->
<!DOCTYPE svg PUBLIC "-//W3C//DTD SVG 1.1//EN" "http://www.w3.org/Graphics/SVG/1.1/DTD/svg11.dtd">
<svg version="1.1" id="Calque_1" xmlns="http://www.w3.org/2000/svg" xmlns:xlink="http://www.w3.org/1999/xlink" x="0px" y="0px"
	 width="612px" height="792px" viewBox="0 0 612 792" enable-background="new 0 0 612 792" xml:space="preserve">
<g>
	<g>
		<path d="M531.827,214.236l-16.523-16.524l22.032-22.032c-0.612-1.224-1.225-2.448-2.448-3.672L454.716,93.06
			c-1.225-1.224-2.448-2.448-3.672-3.06l-22.032,22.032l-16.524-16.524l25.092-25.092c3.061-3.06,7.345-4.896,11.629-4.896l0,0
			c6.731,0,14.688,3.672,21.42,10.404l80.172,80.784c11.016,11.016,13.464,25.092,5.508,33.048L531.827,214.236z"/>
	</g>
	<path d="M522.035,225.864L401.472,105.3L88.128,418.645l0.612,0.611l-1.225,1.225L52.632,566.136l153.612-25.704l1.836-1.836
		l0.611,0.612L522.035,225.864z M489.6,225.864L208.692,506.771l-18.359-18.359L471.24,208.116L489.6,225.864z M401.472,137.736
		l19.584,19.584L140.148,438.228l-19.584-19.583L401.472,137.736z M83.232,537.372L83.232,537.372L83.232,537.372L83.232,537.372z
		 M111.384,533.088l-22.032-22.032l17.136-74.052l82.62,82.62L111.384,533.088z"/>
</g>
</svg>
