<svg viewBox="0 0 683 548" fill="none" xmlns="http://www.w3.org/2000/svg">
  <path
    d="M363.196 242.272H360.867L369.774 219.113H372.088L363.196 242.272ZM388.406 232.692C388.406 235.104 387.855 237.048 386.751 238.522C385.648 239.997 384.153 240.734 382.269 240.734C380.345 240.734 378.831 240.124 377.728 238.903V246.535H375.018V224.592H377.493L377.625 226.349C378.729 224.982 380.262 224.299 382.225 224.299C384.129 224.299 385.633 225.016 386.736 226.452C387.85 227.888 388.406 229.885 388.406 232.443V232.692ZM385.696 232.385C385.696 230.598 385.316 229.186 384.554 228.151C383.792 227.116 382.747 226.599 381.419 226.599C379.778 226.599 378.548 227.326 377.728 228.781V236.354C378.538 237.8 379.778 238.522 381.448 238.522C382.747 238.522 383.777 238.01 384.539 236.984C385.311 235.949 385.696 234.416 385.696 232.385ZM399.525 227.023C399.114 226.955 398.67 226.921 398.192 226.921C396.414 226.921 395.208 227.678 394.573 229.191V240.441H391.863V224.592H394.5L394.544 226.423C395.433 225.007 396.692 224.299 398.323 224.299C398.851 224.299 399.251 224.367 399.525 224.504V227.023ZM401.019 232.37C401.019 230.817 401.321 229.421 401.927 228.181C402.542 226.94 403.392 225.983 404.476 225.309C405.569 224.636 406.815 224.299 408.211 224.299C410.369 224.299 412.112 225.046 413.441 226.54C414.778 228.034 415.447 230.021 415.447 232.502V232.692C415.447 234.235 415.15 235.622 414.554 236.852C413.968 238.073 413.123 239.025 412.02 239.709C410.926 240.392 409.666 240.734 408.24 240.734C406.092 240.734 404.349 239.987 403.011 238.493C401.683 236.999 401.019 235.021 401.019 232.56V232.37ZM403.743 232.692C403.743 234.45 404.149 235.861 404.959 236.926C405.779 237.99 406.873 238.522 408.24 238.522C409.617 238.522 410.711 237.985 411.522 236.911C412.332 235.827 412.737 234.313 412.737 232.37C412.737 230.632 412.322 229.225 411.492 228.151C410.672 227.067 409.578 226.525 408.211 226.525C406.873 226.525 405.794 227.057 404.974 228.122C404.153 229.186 403.743 230.71 403.743 232.692ZM418.187 232.385C418.187 229.953 418.763 228 419.915 226.525C421.067 225.041 422.576 224.299 424.442 224.299C426.297 224.299 427.767 224.933 428.851 226.203V217.941H431.561V240.441H429.07L428.939 238.742C427.855 240.07 426.346 240.734 424.412 240.734C422.576 240.734 421.077 239.982 419.915 238.478C418.763 236.974 418.187 235.012 418.187 232.59V232.385ZM420.897 232.692C420.897 234.489 421.268 235.895 422.01 236.911C422.752 237.927 423.777 238.434 425.086 238.434C426.805 238.434 428.06 237.663 428.851 236.12V228.84C428.04 227.346 426.795 226.599 425.115 226.599C423.787 226.599 422.752 227.111 422.01 228.137C421.268 229.162 420.897 230.681 420.897 232.692ZM445.565 238.874C444.51 240.114 442.962 240.734 440.921 240.734C439.232 240.734 437.942 240.246 437.054 239.269C436.175 238.283 435.731 236.828 435.721 234.904V224.592H438.431V234.831C438.431 237.233 439.407 238.434 441.36 238.434C443.431 238.434 444.808 237.663 445.491 236.12V224.592H448.201V240.441H445.623L445.565 238.874ZM458.69 238.522C459.656 238.522 460.501 238.229 461.224 237.643C461.946 237.057 462.347 236.325 462.425 235.446H464.988C464.94 236.354 464.627 237.219 464.051 238.039C463.475 238.859 462.703 239.514 461.736 240.002C460.779 240.49 459.764 240.734 458.69 240.734C456.531 240.734 454.813 240.016 453.533 238.581C452.264 237.136 451.629 235.163 451.629 232.663V232.209C451.629 230.666 451.912 229.294 452.479 228.093C453.045 226.891 453.856 225.959 454.91 225.295C455.975 224.631 457.23 224.299 458.675 224.299C460.452 224.299 461.927 224.831 463.099 225.895C464.28 226.96 464.91 228.342 464.988 230.041H462.425C462.347 229.016 461.956 228.176 461.253 227.521C460.56 226.857 459.7 226.525 458.675 226.525C457.298 226.525 456.229 227.023 455.467 228.019C454.715 229.006 454.339 230.436 454.339 232.311V232.824C454.339 234.65 454.715 236.057 455.467 237.043C456.219 238.029 457.293 238.522 458.69 238.522ZM471.712 220.754V224.592H474.671V226.686H471.712V236.516C471.712 237.15 471.844 237.629 472.108 237.951C472.371 238.264 472.82 238.42 473.455 238.42C473.768 238.42 474.197 238.361 474.744 238.244V240.441C474.031 240.637 473.338 240.734 472.664 240.734C471.453 240.734 470.54 240.368 469.925 239.636C469.31 238.903 469.002 237.863 469.002 236.516V226.686H466.116V224.592H469.002V220.754H471.712ZM487.078 236.237C487.078 235.505 486.8 234.938 486.243 234.538C485.696 234.128 484.734 233.776 483.358 233.483C481.99 233.19 480.901 232.839 480.091 232.429C479.29 232.018 478.694 231.53 478.304 230.964C477.923 230.397 477.733 229.724 477.733 228.942C477.733 227.643 478.279 226.545 479.373 225.646C480.477 224.748 481.883 224.299 483.592 224.299C485.389 224.299 486.844 224.763 487.957 225.69C489.08 226.618 489.642 227.805 489.642 229.25H486.917C486.917 228.508 486.6 227.868 485.965 227.331C485.34 226.794 484.549 226.525 483.592 226.525C482.606 226.525 481.834 226.74 481.277 227.17C480.721 227.599 480.442 228.161 480.442 228.854C480.442 229.509 480.701 230.002 481.219 230.334C481.736 230.666 482.669 230.983 484.017 231.286C485.374 231.589 486.473 231.95 487.313 232.37C488.152 232.79 488.773 233.298 489.173 233.893C489.583 234.479 489.788 235.197 489.788 236.047C489.788 237.463 489.222 238.6 488.089 239.46C486.956 240.309 485.486 240.734 483.68 240.734C482.41 240.734 481.287 240.51 480.311 240.06C479.334 239.611 478.567 238.986 478.011 238.185C477.464 237.375 477.191 236.501 477.191 235.563H479.9C479.949 236.472 480.311 237.194 480.984 237.731C481.668 238.259 482.567 238.522 483.68 238.522C484.705 238.522 485.525 238.317 486.141 237.907C486.766 237.487 487.078 236.931 487.078 236.237Z"
    fill="white" />
  <path d="M493.335 230.848L517.369 230.848C577.097 230.848 529.339 58.7961 589.365 42.5847L624.416 42.5846"
    stroke="#E9B148" stroke-width="5" stroke-linecap="round" />
  <path d="M365.033 229.972L351.889 229.972C292.396 230.683 331.218 64.5245 271.622 49.6092L152.532 49.6092"
    stroke="#E9B148" stroke-width="5" stroke-linecap="round" />
  <path d="M216.939 458.386L201.604 458.386C146.479 456.272 195.361 405.596 139.388 386.968L70.1603 386.968"
    stroke="url(#paint0_linear)" stroke-width="5" stroke-linecap="round" />
  <path
    d="M216.939 458.386L201.604 458.386C163.924 458.386 142.455 452.69 107.403 452.69C72.351 452.69 29.8507 452.69 29.8507 452.69"
    stroke="url(#paint1_linear)" stroke-width="5" stroke-linecap="round" />
  <path d="M216.939 458.386L201.604 458.386C163.924 458.386 186.707 513.155 129.748 513.155L37.2992 513.155"
    stroke="url(#paint2_linear)" stroke-width="5" stroke-linecap="round" />
  <path d="M493.335 230.848L517.369 230.848C577.097 230.848 542.921 171.838 602.947 155.627L676.556 155.627"
    stroke="#E9B148" stroke-width="5" stroke-linecap="round" />
  <path d="M361.09 229.972L345.755 229.972C304.131 229.972 323.485 154.75 266.012 154.75L177.869 154.75"
    stroke="#E9B148" stroke-width="5" stroke-linecap="round" />
  <path d="M496.916 231.426L521.89 231.427C581.618 231.427 533.72 369.395 593.308 369.395L765.062 369.396"
    stroke="#E9B148" stroke-width="5" stroke-linecap="round" />
  <path d="M365.166 229.519L340.192 229.519C280.464 229.519 311.141 289.261 251.553 289.262L150.779 289.262"
    stroke="#E9B148" stroke-width="5" stroke-linecap="round" />
  <path d="M493.41 232.302L522.328 232.3C582.056 232.3 534.798 460.374 594.386 460.375L683.566 460.375" stroke="#E9B148"
    stroke-width="5" stroke-linecap="round" />
  <path d="M364.157 230.112L351.889 230.112C292.161 230.112 344.879 458.184 285.291 458.185L199.414 458.185"
    stroke="#E9B148" stroke-width="5" stroke-linecap="round" />
  <path d="M494.725 230.988L524.081 230.988C583.809 230.988 544.235 261.373 603.023 261.374L669.184 261.374"
    stroke="#E9B148" stroke-width="5" stroke-linecap="round" />
  <path
    d="M602.083 34H599.734V20.2637H602.083V34ZM599.543 16.6201C599.543 16.2393 599.658 15.9176 599.886 15.6553C600.123 15.3929 600.47 15.2617 600.927 15.2617C601.384 15.2617 601.731 15.3929 601.968 15.6553C602.205 15.9176 602.324 16.2393 602.324 16.6201C602.324 17.001 602.205 17.3184 601.968 17.5723C601.731 17.8262 601.384 17.9531 600.927 17.9531C600.47 17.9531 600.123 17.8262 599.886 17.5723C599.658 17.3184 599.543 17.001 599.543 16.6201ZM605.282 27.0176C605.282 24.9102 605.781 23.2174 606.78 21.9395C607.778 20.653 609.086 20.0098 610.703 20.0098C612.311 20.0098 613.584 20.5599 614.524 21.6602V14.5H616.873V34H614.714L614.6 32.5273C613.661 33.6784 612.353 34.2539 610.677 34.2539C609.086 34.2539 607.787 33.6022 606.78 32.2988C605.781 30.9954 605.282 29.2943 605.282 27.1953V27.0176ZM607.63 27.2842C607.63 28.8415 607.952 30.0602 608.595 30.9404C609.238 31.8206 610.127 32.2607 611.261 32.2607C612.751 32.2607 613.838 31.5921 614.524 30.2549V23.9453C613.821 22.6504 612.742 22.0029 611.287 22.0029C610.136 22.0029 609.238 22.4473 608.595 23.3359C607.952 24.2246 607.63 25.5407 607.63 27.2842Z"
    fill="white" />
  <path
    d="M608.752 131.264L608.829 132.99C609.878 131.67 611.249 131.01 612.942 131.01C615.845 131.01 617.309 132.647 617.334 135.923V145H614.986V135.91C614.977 134.92 614.749 134.188 614.3 133.714C613.86 133.24 613.17 133.003 612.231 133.003C611.469 133.003 610.801 133.206 610.225 133.612C609.65 134.019 609.201 134.552 608.879 135.212V145H606.531V131.264H608.752ZM629.357 145C629.222 144.729 629.111 144.247 629.027 143.553C627.935 144.687 626.632 145.254 625.117 145.254C623.763 145.254 622.65 144.873 621.778 144.111C620.915 143.341 620.483 142.368 620.483 141.191C620.483 139.761 621.025 138.652 622.108 137.865C623.2 137.07 624.732 136.672 626.704 136.672H628.989V135.593C628.989 134.772 628.743 134.12 628.252 133.638C627.762 133.147 627.038 132.901 626.082 132.901C625.244 132.901 624.541 133.113 623.974 133.536C623.407 133.959 623.124 134.471 623.124 135.072H620.762C620.762 134.387 621.003 133.727 621.486 133.092C621.977 132.449 622.637 131.941 623.466 131.568C624.304 131.196 625.222 131.01 626.221 131.01C627.804 131.01 629.044 131.408 629.941 132.203C630.838 132.99 631.304 134.078 631.337 135.466V141.788C631.337 143.049 631.498 144.052 631.82 144.797V145H629.357ZM625.459 143.21C626.196 143.21 626.894 143.02 627.554 142.639C628.214 142.258 628.693 141.763 628.989 141.153V138.335H627.148C624.27 138.335 622.832 139.177 622.832 140.861C622.832 141.598 623.077 142.173 623.568 142.588C624.059 143.003 624.689 143.21 625.459 143.21ZM637.228 131.264L637.292 132.787C638.299 131.602 639.657 131.01 641.367 131.01C643.288 131.01 644.596 131.746 645.29 133.219C645.747 132.559 646.339 132.025 647.067 131.619C647.803 131.213 648.671 131.01 649.669 131.01C652.682 131.01 654.214 132.605 654.265 135.796V145H651.917V135.936C651.917 134.954 651.692 134.222 651.244 133.739C650.795 133.248 650.042 133.003 648.984 133.003C648.112 133.003 647.389 133.265 646.813 133.79C646.237 134.306 645.903 135.005 645.81 135.885V145H643.449V135.999C643.449 134.002 642.471 133.003 640.516 133.003C638.976 133.003 637.922 133.659 637.355 134.971V145H635.006V131.264H637.228ZM663.52 145.254C661.658 145.254 660.143 144.645 658.975 143.426C657.807 142.199 657.223 140.561 657.223 138.513V138.081C657.223 136.718 657.481 135.504 657.998 134.438C658.522 133.363 659.25 132.525 660.181 131.924C661.121 131.314 662.136 131.01 663.228 131.01C665.014 131.01 666.402 131.598 667.392 132.774C668.382 133.951 668.877 135.635 668.877 137.827V138.805H659.572C659.606 140.159 659.999 141.255 660.752 142.093C661.514 142.922 662.479 143.337 663.647 143.337C664.476 143.337 665.179 143.168 665.754 142.829C666.33 142.491 666.833 142.042 667.265 141.483L668.7 142.601C667.549 144.369 665.822 145.254 663.52 145.254ZM663.228 132.939C662.28 132.939 661.485 133.286 660.841 133.98C660.198 134.666 659.8 135.631 659.648 136.875H666.529V136.697C666.461 135.504 666.139 134.581 665.564 133.93C664.988 133.27 664.21 132.939 663.228 132.939Z"
    fill="white" />
  <path
    d="M618.134 242.284C618.134 244.375 617.656 246.059 616.7 247.337C615.743 248.615 614.448 249.254 612.815 249.254C611.148 249.254 609.836 248.725 608.879 247.667V254.281H606.531V235.264H608.676L608.791 236.787C609.747 235.602 611.076 235.01 612.777 235.01C614.427 235.01 615.731 235.632 616.687 236.876C617.652 238.12 618.134 239.851 618.134 242.068V242.284ZM615.786 242.018C615.786 240.469 615.456 239.246 614.795 238.349C614.135 237.451 613.23 237.003 612.079 237.003C610.657 237.003 609.59 237.633 608.879 238.895V245.458C609.582 246.711 610.657 247.337 612.104 247.337C613.23 247.337 614.123 246.893 614.783 246.004C615.451 245.107 615.786 243.778 615.786 242.018ZM627.77 237.371C627.415 237.312 627.029 237.282 626.615 237.282C625.074 237.282 624.029 237.938 623.479 239.25V249H621.13V235.264H623.416L623.454 236.851C624.224 235.623 625.316 235.01 626.729 235.01C627.186 235.01 627.533 235.069 627.77 235.188V237.371ZM632.493 249H630.144V235.264H632.493V249ZM629.954 231.62C629.954 231.239 630.068 230.918 630.296 230.655C630.533 230.393 630.88 230.262 631.337 230.262C631.794 230.262 632.141 230.393 632.378 230.655C632.615 230.918 632.734 231.239 632.734 231.62C632.734 232.001 632.615 232.318 632.378 232.572C632.141 232.826 631.794 232.953 631.337 232.953C630.88 232.953 630.533 232.826 630.296 232.572C630.068 232.318 629.954 232.001 629.954 231.62ZM641.773 247.337C642.611 247.337 643.343 247.083 643.969 246.575C644.596 246.067 644.943 245.433 645.01 244.671H647.232C647.19 245.458 646.919 246.207 646.419 246.918C645.92 247.629 645.251 248.196 644.414 248.619C643.584 249.042 642.704 249.254 641.773 249.254C639.903 249.254 638.413 248.632 637.304 247.388C636.204 246.135 635.654 244.425 635.654 242.259V241.865C635.654 240.528 635.899 239.339 636.39 238.298C636.881 237.257 637.583 236.449 638.498 235.873C639.42 235.298 640.508 235.01 641.76 235.01C643.301 235.01 644.579 235.471 645.594 236.394C646.618 237.316 647.164 238.514 647.232 239.986H645.01C644.943 239.098 644.604 238.37 643.995 237.803C643.394 237.227 642.649 236.939 641.76 236.939C640.567 236.939 639.64 237.371 638.98 238.234C638.328 239.089 638.002 240.329 638.002 241.954V242.398C638.002 243.981 638.328 245.2 638.98 246.055C639.632 246.91 640.563 247.337 641.773 247.337ZM655.573 249.254C653.711 249.254 652.196 248.645 651.028 247.426C649.86 246.199 649.276 244.561 649.276 242.513V242.081C649.276 240.718 649.534 239.504 650.05 238.438C650.575 237.363 651.303 236.525 652.234 235.924C653.173 235.314 654.189 235.01 655.281 235.01C657.067 235.01 658.455 235.598 659.445 236.774C660.435 237.951 660.93 239.635 660.93 241.827V242.805H651.625C651.658 244.159 652.052 245.255 652.805 246.093C653.567 246.922 654.532 247.337 655.7 247.337C656.529 247.337 657.232 247.168 657.807 246.829C658.383 246.491 658.886 246.042 659.318 245.483L660.752 246.601C659.601 248.369 657.875 249.254 655.573 249.254ZM655.281 236.939C654.333 236.939 653.537 237.286 652.894 237.98C652.251 238.666 651.853 239.631 651.701 240.875H658.582V240.697C658.514 239.504 658.192 238.581 657.617 237.93C657.041 237.27 656.263 236.939 655.281 236.939Z"
    fill="white" />
  <path
    d="M614.529 356.356C614.529 355.722 614.288 355.231 613.805 354.884C613.331 354.528 612.498 354.224 611.304 353.97C610.119 353.716 609.176 353.411 608.473 353.056C607.779 352.7 607.263 352.277 606.924 351.786C606.594 351.295 606.429 350.711 606.429 350.034C606.429 348.909 606.903 347.956 607.851 347.178C608.807 346.399 610.026 346.01 611.507 346.01C613.065 346.01 614.326 346.412 615.291 347.216C616.264 348.02 616.75 349.048 616.75 350.301H614.389C614.389 349.658 614.114 349.103 613.564 348.638C613.022 348.172 612.337 347.939 611.507 347.939C610.653 347.939 609.984 348.126 609.501 348.498C609.019 348.87 608.778 349.357 608.778 349.958C608.778 350.525 609.002 350.952 609.451 351.24C609.899 351.528 610.708 351.803 611.875 352.065C613.052 352.328 614.004 352.641 614.732 353.005C615.46 353.369 615.997 353.809 616.344 354.325C616.7 354.833 616.877 355.455 616.877 356.191C616.877 357.419 616.387 358.405 615.405 359.149C614.423 359.886 613.149 360.254 611.583 360.254C610.483 360.254 609.51 360.059 608.664 359.67C607.817 359.281 607.153 358.739 606.67 358.045C606.196 357.342 605.959 356.585 605.959 355.772H608.308C608.35 356.56 608.664 357.186 609.248 357.651C609.84 358.108 610.619 358.337 611.583 358.337C612.472 358.337 613.183 358.159 613.716 357.804C614.258 357.44 614.529 356.957 614.529 356.356ZM623.124 342.938V346.264H625.688V348.079H623.124V356.598C623.124 357.148 623.238 357.562 623.466 357.842C623.695 358.113 624.084 358.248 624.634 358.248C624.905 358.248 625.278 358.197 625.751 358.096V360C625.134 360.169 624.533 360.254 623.949 360.254C622.899 360.254 622.108 359.937 621.575 359.302C621.042 358.667 620.775 357.766 620.775 356.598V348.079H618.274V346.264H620.775V342.938H623.124ZM636.923 360C636.788 359.729 636.678 359.247 636.593 358.553C635.501 359.687 634.198 360.254 632.683 360.254C631.329 360.254 630.216 359.873 629.344 359.111C628.481 358.341 628.049 357.368 628.049 356.191C628.049 354.761 628.591 353.652 629.674 352.865C630.766 352.07 632.298 351.672 634.27 351.672H636.555V350.593C636.555 349.772 636.31 349.12 635.819 348.638C635.328 348.147 634.604 347.901 633.648 347.901C632.81 347.901 632.108 348.113 631.541 348.536C630.973 348.959 630.69 349.471 630.69 350.072H628.329C628.329 349.387 628.57 348.727 629.052 348.092C629.543 347.449 630.203 346.941 631.033 346.568C631.871 346.196 632.789 346.01 633.788 346.01C635.37 346.01 636.61 346.408 637.507 347.203C638.404 347.99 638.87 349.078 638.904 350.466V356.788C638.904 358.049 639.065 359.052 639.386 359.797V360H636.923ZM633.026 358.21C633.762 358.21 634.46 358.02 635.121 357.639C635.781 357.258 636.259 356.763 636.555 356.153V353.335H634.714C631.837 353.335 630.398 354.177 630.398 355.861C630.398 356.598 630.643 357.173 631.134 357.588C631.625 358.003 632.256 358.21 633.026 358.21ZM645.772 342.938V346.264H648.336V348.079H645.772V356.598C645.772 357.148 645.886 357.562 646.115 357.842C646.343 358.113 646.733 358.248 647.283 358.248C647.554 358.248 647.926 358.197 648.4 358.096V360C647.782 360.169 647.181 360.254 646.597 360.254C645.548 360.254 644.756 359.937 644.223 359.302C643.69 358.667 643.423 357.766 643.423 356.598V348.079H640.922V346.264H643.423V342.938H645.772ZM659.572 358.642C658.658 359.716 657.316 360.254 655.547 360.254C654.083 360.254 652.966 359.831 652.196 358.984C651.434 358.13 651.049 356.868 651.041 355.201V346.264H653.389V355.138C653.389 357.22 654.236 358.261 655.928 358.261C657.722 358.261 658.916 357.592 659.508 356.255V346.264H661.857V360H659.623L659.572 358.642ZM673.435 356.356C673.435 355.722 673.194 355.231 672.711 354.884C672.237 354.528 671.404 354.224 670.21 353.97C669.026 353.716 668.082 353.411 667.379 353.056C666.685 352.7 666.169 352.277 665.831 351.786C665.5 351.295 665.335 350.711 665.335 350.034C665.335 348.909 665.809 347.956 666.757 347.178C667.714 346.399 668.932 346.01 670.414 346.01C671.971 346.01 673.232 346.412 674.197 347.216C675.17 348.02 675.657 349.048 675.657 350.301H673.295C673.295 349.658 673.02 349.103 672.47 348.638C671.929 348.172 671.243 347.939 670.414 347.939C669.559 347.939 668.89 348.126 668.408 348.498C667.925 348.87 667.684 349.357 667.684 349.958C667.684 350.525 667.908 350.952 668.357 351.24C668.806 351.528 669.614 351.803 670.782 352.065C671.958 352.328 672.91 352.641 673.638 353.005C674.366 353.369 674.903 353.809 675.25 354.325C675.606 354.833 675.784 355.455 675.784 356.191C675.784 357.419 675.293 358.405 674.311 359.149C673.329 359.886 672.056 360.254 670.49 360.254C669.389 360.254 668.416 360.059 667.57 359.67C666.723 359.281 666.059 358.739 665.577 358.045C665.103 357.342 664.866 356.585 664.866 355.772H667.214C667.257 356.56 667.57 357.186 668.154 357.651C668.746 358.108 669.525 358.337 670.49 358.337C671.378 358.337 672.089 358.159 672.623 357.804C673.164 357.44 673.435 356.957 673.435 356.356Z"
    fill="white" />
  <path
    d="M609.083 450H606.734V436.264H609.083V450ZM606.543 432.62C606.543 432.239 606.658 431.918 606.886 431.655C607.123 431.393 607.47 431.262 607.927 431.262C608.384 431.262 608.731 431.393 608.968 431.655C609.205 431.918 609.324 432.239 609.324 432.62C609.324 433.001 609.205 433.318 608.968 433.572C608.731 433.826 608.384 433.953 607.927 433.953C607.47 433.953 607.123 433.826 606.886 433.572C606.658 433.318 606.543 433.001 606.543 432.62ZM615.062 436.264L615.125 437.787C616.133 436.602 617.491 436.01 619.201 436.01C621.122 436.01 622.43 436.746 623.124 438.219C623.581 437.559 624.173 437.025 624.901 436.619C625.637 436.213 626.505 436.01 627.503 436.01C630.516 436.01 632.048 437.605 632.099 440.796V450H629.75V440.936C629.75 439.954 629.526 439.222 629.078 438.739C628.629 438.248 627.876 438.003 626.818 438.003C625.946 438.003 625.222 438.265 624.647 438.79C624.071 439.306 623.737 440.005 623.644 440.885V450H621.283V440.999C621.283 439.002 620.305 438.003 618.35 438.003C616.81 438.003 615.756 438.659 615.189 439.971V450H612.84V436.264H615.062ZM644.134 450C643.999 449.729 643.889 449.247 643.804 448.553C642.712 449.687 641.409 450.254 639.894 450.254C638.54 450.254 637.427 449.873 636.555 449.111C635.692 448.341 635.26 447.368 635.26 446.191C635.26 444.761 635.802 443.652 636.885 442.865C637.977 442.07 639.509 441.672 641.481 441.672H643.766V440.593C643.766 439.772 643.521 439.12 643.03 438.638C642.539 438.147 641.815 437.901 640.859 437.901C640.021 437.901 639.319 438.113 638.751 438.536C638.184 438.959 637.901 439.471 637.901 440.072H635.54C635.54 439.387 635.781 438.727 636.263 438.092C636.754 437.449 637.414 436.941 638.244 436.568C639.082 436.196 640 436.01 640.999 436.01C642.581 436.01 643.821 436.408 644.718 437.203C645.615 437.99 646.081 439.078 646.115 440.466V446.788C646.115 448.049 646.276 449.052 646.597 449.797V450H644.134ZM640.237 448.21C640.973 448.21 641.671 448.02 642.332 447.639C642.992 447.258 643.47 446.763 643.766 446.153V443.335H641.925C639.048 443.335 637.609 444.177 637.609 445.861C637.609 446.598 637.854 447.173 638.345 447.588C638.836 448.003 639.467 448.21 640.237 448.21ZM649.238 443.018C649.238 440.876 649.733 439.175 650.723 437.914C651.713 436.645 653.025 436.01 654.659 436.01C656.334 436.01 657.642 436.602 658.582 437.787L658.696 436.264H660.841V449.67C660.841 451.447 660.312 452.848 659.254 453.872C658.205 454.896 656.792 455.408 655.014 455.408C654.024 455.408 653.055 455.197 652.107 454.773C651.159 454.35 650.435 453.771 649.936 453.034L651.155 451.625C652.162 452.869 653.393 453.491 654.849 453.491C655.992 453.491 656.88 453.17 657.515 452.526C658.158 451.883 658.48 450.978 658.48 449.81V448.629C657.541 449.712 656.258 450.254 654.633 450.254C653.025 450.254 651.722 449.606 650.723 448.312C649.733 447.017 649.238 445.252 649.238 443.018ZM651.599 443.284C651.599 444.833 651.917 446.052 652.551 446.94C653.186 447.821 654.075 448.261 655.217 448.261C656.698 448.261 657.786 447.588 658.48 446.242V439.971C657.761 438.659 656.681 438.003 655.243 438.003C654.1 438.003 653.207 438.447 652.564 439.336C651.921 440.225 651.599 441.541 651.599 443.284ZM670.096 450.254C668.234 450.254 666.719 449.645 665.551 448.426C664.383 447.199 663.799 445.561 663.799 443.513V443.081C663.799 441.718 664.057 440.504 664.574 439.438C665.098 438.363 665.826 437.525 666.757 436.924C667.697 436.314 668.712 436.01 669.804 436.01C671.59 436.01 672.978 436.598 673.968 437.774C674.958 438.951 675.454 440.635 675.454 442.827V443.805H666.148C666.182 445.159 666.575 446.255 667.329 447.093C668.09 447.922 669.055 448.337 670.223 448.337C671.053 448.337 671.755 448.168 672.331 447.829C672.906 447.491 673.41 447.042 673.841 446.483L675.276 447.601C674.125 449.369 672.398 450.254 670.096 450.254ZM669.804 437.939C668.856 437.939 668.061 438.286 667.417 438.98C666.774 439.666 666.376 440.631 666.224 441.875H673.105V441.697C673.037 440.504 672.716 439.581 672.14 438.93C671.565 438.27 670.786 437.939 669.804 437.939ZM686.181 446.356C686.181 445.722 685.94 445.231 685.458 444.884C684.984 444.528 684.15 444.224 682.957 443.97C681.772 443.716 680.828 443.411 680.125 443.056C679.431 442.7 678.915 442.277 678.577 441.786C678.247 441.295 678.082 440.711 678.082 440.034C678.082 438.909 678.556 437.956 679.503 437.178C680.46 436.399 681.679 436.01 683.16 436.01C684.717 436.01 685.978 436.412 686.943 437.216C687.916 438.02 688.403 439.048 688.403 440.301H686.042C686.042 439.658 685.766 439.103 685.216 438.638C684.675 438.172 683.989 437.939 683.16 437.939C682.305 437.939 681.636 438.126 681.154 438.498C680.671 438.87 680.43 439.357 680.43 439.958C680.43 440.525 680.654 440.952 681.103 441.24C681.552 441.528 682.36 441.803 683.528 442.065C684.704 442.328 685.656 442.641 686.384 443.005C687.112 443.369 687.65 443.809 687.997 444.325C688.352 444.833 688.53 445.455 688.53 446.191C688.53 447.419 688.039 448.405 687.057 449.149C686.075 449.886 684.802 450.254 683.236 450.254C682.136 450.254 681.162 450.059 680.316 449.67C679.47 449.281 678.805 448.739 678.323 448.045C677.849 447.342 677.612 446.585 677.612 445.772H679.96C680.003 446.56 680.316 447.186 680.9 447.651C681.492 448.108 682.271 448.337 683.236 448.337C684.125 448.337 684.835 448.159 685.369 447.804C685.91 447.44 686.181 446.957 686.181 446.356Z"
    fill="white" />
  <path
    d="M196.959 443.018C196.959 440.91 197.459 439.217 198.458 437.939C199.456 436.653 200.764 436.01 202.38 436.01C203.988 436.01 205.262 436.56 206.202 437.66V430.5H208.55V450H206.392L206.278 448.527C205.338 449.678 204.031 450.254 202.355 450.254C200.764 450.254 199.465 449.602 198.458 448.299C197.459 446.995 196.959 445.294 196.959 443.195V443.018ZM199.308 443.284C199.308 444.841 199.63 446.06 200.273 446.94C200.916 447.821 201.805 448.261 202.939 448.261C204.429 448.261 205.516 447.592 206.202 446.255V439.945C205.499 438.65 204.42 438.003 202.964 438.003C201.813 438.003 200.916 438.447 200.273 439.336C199.63 440.225 199.308 441.541 199.308 443.284ZM217.907 450.254C216.045 450.254 214.53 449.645 213.362 448.426C212.194 447.199 211.61 445.561 211.61 443.513V443.081C211.61 441.718 211.868 440.504 212.384 439.438C212.909 438.363 213.637 437.525 214.568 436.924C215.507 436.314 216.523 436.01 217.615 436.01C219.401 436.01 220.789 436.598 221.779 437.774C222.769 438.951 223.264 440.635 223.264 442.827V443.805H213.958C213.992 445.159 214.386 446.255 215.139 447.093C215.901 447.922 216.866 448.337 218.034 448.337C218.863 448.337 219.566 448.168 220.141 447.829C220.717 447.491 221.22 447.042 221.652 446.483L223.086 447.601C221.935 449.369 220.209 450.254 217.907 450.254ZM217.615 437.939C216.667 437.939 215.871 438.286 215.228 438.98C214.585 439.666 214.187 440.631 214.035 441.875H220.916V441.697C220.848 440.504 220.526 439.581 219.951 438.93C219.375 438.27 218.597 437.939 217.615 437.939ZM228.545 450H226.197V430.5H228.545V450ZM234.868 450H232.519V436.264H234.868V450ZM232.329 432.62C232.329 432.239 232.443 431.918 232.671 431.655C232.908 431.393 233.255 431.262 233.712 431.262C234.169 431.262 234.516 431.393 234.753 431.655C234.99 431.918 235.109 432.239 235.109 432.62C235.109 433.001 234.99 433.318 234.753 433.572C234.516 433.826 234.169 433.953 233.712 433.953C233.255 433.953 232.908 433.826 232.671 433.572C232.443 433.318 232.329 433.001 232.329 432.62ZM243.17 446.813L246.573 436.264H248.972L244.046 450H242.256L237.28 436.264H239.679L243.17 446.813ZM256.754 450.254C254.892 450.254 253.377 449.645 252.209 448.426C251.042 447.199 250.458 445.561 250.458 443.513V443.081C250.458 441.718 250.716 440.504 251.232 439.438C251.757 438.363 252.485 437.525 253.416 436.924C254.355 436.314 255.371 436.01 256.462 436.01C258.248 436.01 259.636 436.598 260.626 437.774C261.617 438.951 262.112 440.635 262.112 442.827V443.805H252.806C252.84 445.159 253.234 446.255 253.987 447.093C254.749 447.922 255.713 448.337 256.881 448.337C257.711 448.337 258.413 448.168 258.989 447.829C259.564 447.491 260.068 447.042 260.5 446.483L261.934 447.601C260.783 449.369 259.056 450.254 256.754 450.254ZM256.462 437.939C255.514 437.939 254.719 438.286 254.076 438.98C253.432 439.666 253.035 440.631 252.882 441.875H259.763V441.697C259.695 440.504 259.374 439.581 258.798 438.93C258.223 438.27 257.444 437.939 256.462 437.939ZM271.481 438.371C271.125 438.312 270.74 438.282 270.326 438.282C268.785 438.282 267.74 438.938 267.19 440.25V450H264.841V436.264H267.126L267.165 437.851C267.935 436.623 269.027 436.01 270.44 436.01C270.897 436.01 271.244 436.069 271.481 436.188V438.371ZM278.375 446.56L281.574 436.264H284.087L278.565 452.12C277.71 454.405 276.352 455.548 274.49 455.548L274.045 455.51L273.169 455.345V453.44L273.804 453.491C274.6 453.491 275.218 453.33 275.658 453.009C276.106 452.687 276.474 452.099 276.762 451.244L277.283 449.848L272.382 436.264H274.947L278.375 446.56Z"
    fill="white" />
  <path
    d="M160.959 30.0176C160.959 27.9102 161.459 26.2174 162.458 24.9395C163.456 23.653 164.764 23.0098 166.38 23.0098C167.988 23.0098 169.262 23.5599 170.202 24.6602V17.5H172.55V37H170.392L170.278 35.5273C169.338 36.6784 168.031 37.2539 166.355 37.2539C164.764 37.2539 163.465 36.6022 162.458 35.2988C161.459 33.9954 160.959 32.2943 160.959 30.1953V30.0176ZM163.308 30.2842C163.308 31.8415 163.63 33.0602 164.273 33.9404C164.916 34.8206 165.805 35.2607 166.939 35.2607C168.429 35.2607 169.516 34.5921 170.202 33.2549V26.9453C169.499 25.6504 168.42 25.0029 166.964 25.0029C165.813 25.0029 164.916 25.4473 164.273 26.3359C163.63 27.2246 163.308 28.5407 163.308 30.2842ZM181.907 37.2539C180.045 37.2539 178.53 36.6445 177.362 35.4258C176.194 34.1986 175.61 32.5609 175.61 30.5127V30.0811C175.61 28.7184 175.868 27.5039 176.384 26.4375C176.909 25.3626 177.637 24.5247 178.568 23.9238C179.507 23.3145 180.523 23.0098 181.615 23.0098C183.401 23.0098 184.789 23.598 185.779 24.7744C186.769 25.9508 187.264 27.6351 187.264 29.8271V30.8047H177.958C177.992 32.1589 178.386 33.2549 179.139 34.0928C179.901 34.9222 180.866 35.3369 182.034 35.3369C182.863 35.3369 183.566 35.1676 184.141 34.8291C184.717 34.4906 185.22 34.042 185.652 33.4834L187.086 34.6006C185.935 36.3695 184.209 37.2539 181.907 37.2539ZM181.615 24.9395C180.667 24.9395 179.871 25.2865 179.228 25.9805C178.585 26.666 178.187 27.6309 178.035 28.875H184.916V28.6973C184.848 27.5039 184.526 26.5814 183.951 25.9297C183.375 25.2695 182.597 24.9395 181.615 24.9395ZM197.992 33.3564C197.992 32.7217 197.75 32.2308 197.268 31.8838C196.794 31.5283 195.96 31.2236 194.767 30.9697C193.582 30.7158 192.639 30.4111 191.936 30.0557C191.242 29.7002 190.726 29.277 190.387 28.7861C190.057 28.2952 189.892 27.7113 189.892 27.0342C189.892 25.9085 190.366 24.9564 191.314 24.1777C192.27 23.3991 193.489 23.0098 194.97 23.0098C196.528 23.0098 197.789 23.4118 198.753 24.2158C199.727 25.0199 200.213 26.0482 200.213 27.3008H197.852C197.852 26.6576 197.577 26.1032 197.027 25.6377C196.485 25.1722 195.8 24.9395 194.97 24.9395C194.115 24.9395 193.447 25.1257 192.964 25.498C192.482 25.8704 192.241 26.3571 192.241 26.958C192.241 27.5251 192.465 27.9525 192.914 28.2402C193.362 28.528 194.17 28.8031 195.338 29.0654C196.515 29.3278 197.467 29.641 198.195 30.0049C198.923 30.3688 199.46 30.8089 199.807 31.3252C200.163 31.833 200.34 32.4551 200.34 33.1914C200.34 34.4186 199.849 35.4046 198.868 36.1494C197.886 36.8857 196.612 37.2539 195.046 37.2539C193.946 37.2539 192.973 37.0592 192.126 36.6699C191.28 36.2806 190.616 35.7389 190.133 35.0449C189.659 34.3424 189.422 33.585 189.422 32.7725H191.771C191.813 33.5596 192.126 34.1859 192.71 34.6514C193.303 35.1084 194.082 35.3369 195.046 35.3369C195.935 35.3369 196.646 35.1592 197.179 34.8037C197.721 34.4398 197.992 33.9574 197.992 33.3564ZM208.91 35.3369C209.748 35.3369 210.48 35.083 211.106 34.5752C211.732 34.0674 212.079 33.4326 212.147 32.6709H214.369C214.326 33.458 214.056 34.207 213.556 34.918C213.057 35.6289 212.388 36.196 211.55 36.6191C210.721 37.0423 209.841 37.2539 208.91 37.2539C207.039 37.2539 205.55 36.6318 204.441 35.3877C203.341 34.1351 202.791 32.4255 202.791 30.2588V29.8652C202.791 28.528 203.036 27.3389 203.527 26.2979C204.018 25.2568 204.72 24.4486 205.634 23.873C206.557 23.2975 207.644 23.0098 208.897 23.0098C210.437 23.0098 211.715 23.471 212.731 24.3936C213.755 25.3161 214.301 26.5137 214.369 27.9863H212.147C212.079 27.0977 211.741 26.3698 211.131 25.8027C210.53 25.2272 209.786 24.9395 208.897 24.9395C207.704 24.9395 206.777 25.3711 206.117 26.2344C205.465 27.0892 205.139 28.3291 205.139 29.9541V30.3984C205.139 31.9811 205.465 33.1999 206.117 34.0547C206.768 34.9095 207.699 35.3369 208.91 35.3369ZM223.649 25.3711C223.293 25.3118 222.908 25.2822 222.494 25.2822C220.953 25.2822 219.908 25.9382 219.358 27.25V37H217.009V23.2637H219.294L219.333 24.8506C220.103 23.6234 221.194 23.0098 222.608 23.0098C223.065 23.0098 223.412 23.069 223.649 23.1875V25.3711ZM228.372 37H226.023V23.2637H228.372V37ZM225.833 19.6201C225.833 19.2393 225.947 18.9176 226.175 18.6553C226.412 18.3929 226.759 18.2617 227.216 18.2617C227.673 18.2617 228.02 18.3929 228.257 18.6553C228.494 18.9176 228.613 19.2393 228.613 19.6201C228.613 20.001 228.494 20.3184 228.257 20.5723C228.02 20.8262 227.673 20.9531 227.216 20.9531C226.759 20.9531 226.412 20.8262 226.175 20.5723C225.947 20.3184 225.833 20.001 225.833 19.6201ZM243.746 30.2842C243.746 32.3747 243.267 34.0589 242.311 35.3369C241.355 36.6149 240.06 37.2539 238.426 37.2539C236.759 37.2539 235.447 36.7249 234.491 35.667V42.2812H232.142V23.2637H234.288L234.402 24.7871C235.358 23.6022 236.687 23.0098 238.388 23.0098C240.039 23.0098 241.342 23.6318 242.298 24.876C243.263 26.1201 243.746 27.8509 243.746 30.0684V30.2842ZM241.397 30.0176C241.397 28.4688 241.067 27.2458 240.407 26.3486C239.747 25.4515 238.841 25.0029 237.69 25.0029C236.268 25.0029 235.202 25.6335 234.491 26.8945V33.458C235.193 34.7106 236.268 35.3369 237.715 35.3369C238.841 35.3369 239.734 34.8926 240.394 34.0039C241.063 33.1068 241.397 31.778 241.397 30.0176ZM249.928 19.9375V23.2637H252.493V25.0791H249.928V33.5977C249.928 34.1478 250.042 34.5625 250.271 34.8418C250.5 35.1126 250.889 35.248 251.439 35.248C251.71 35.248 252.082 35.1973 252.556 35.0957V37C251.938 37.1693 251.337 37.2539 250.753 37.2539C249.704 37.2539 248.913 36.9365 248.379 36.3018C247.846 35.667 247.58 34.7656 247.58 33.5977V25.0791H245.079V23.2637H247.58V19.9375H249.928ZM257.799 37H255.451V23.2637H257.799V37ZM255.26 19.6201C255.26 19.2393 255.375 18.9176 255.603 18.6553C255.84 18.3929 256.187 18.2617 256.644 18.2617C257.101 18.2617 257.448 18.3929 257.685 18.6553C257.922 18.9176 258.041 19.2393 258.041 19.6201C258.041 20.001 257.922 20.3184 257.685 20.5723C257.448 20.8262 257.101 20.9531 256.644 20.9531C256.187 20.9531 255.84 20.8262 255.603 20.5723C255.375 20.3184 255.26 20.001 255.26 19.6201ZM260.948 30.0049C260.948 28.6592 261.21 27.4489 261.735 26.374C262.268 25.2992 263.004 24.4697 263.944 23.8857C264.892 23.3018 265.971 23.0098 267.181 23.0098C269.052 23.0098 270.562 23.6572 271.713 24.9521C272.873 26.2471 273.453 27.9694 273.453 30.1191V30.2842C273.453 31.6214 273.194 32.8232 272.678 33.8896C272.17 34.9476 271.438 35.7728 270.482 36.3652C269.534 36.9577 268.442 37.2539 267.207 37.2539C265.345 37.2539 263.834 36.6064 262.674 35.3115C261.523 34.0166 260.948 32.3027 260.948 30.1699V30.0049ZM263.309 30.2842C263.309 31.8076 263.66 33.0306 264.363 33.9531C265.074 34.8757 266.022 35.3369 267.207 35.3369C268.4 35.3369 269.348 34.8714 270.05 33.9404C270.753 33.001 271.104 31.6891 271.104 30.0049C271.104 28.4984 270.744 27.2796 270.025 26.3486C269.314 25.4092 268.366 24.9395 267.181 24.9395C266.022 24.9395 265.086 25.4007 264.375 26.3232C263.665 27.2458 263.309 28.5661 263.309 30.2842ZM278.62 23.2637L278.696 24.9902C279.745 23.6699 281.116 23.0098 282.809 23.0098C285.712 23.0098 287.176 24.6475 287.202 27.9229V37H284.853V27.9102C284.845 26.9199 284.616 26.1878 284.167 25.7139C283.727 25.2399 283.038 25.0029 282.098 25.0029C281.336 25.0029 280.668 25.2061 280.092 25.6123C279.517 26.0186 279.068 26.5518 278.747 27.2119V37H276.398V23.2637H278.62Z"
    fill="white" />
  <path
    d="M159.465 275.795H156.114L155.098 281H153.283L154.298 275.795H151.264V274.056H154.628L155.504 269.562H152.229V267.797H155.847L156.888 262.516H158.704L157.663 267.797H161.014L162.055 262.516H163.883L162.842 267.797H165.432V269.562H162.5L161.624 274.056H164.48V275.795H161.293L160.278 281H158.45L159.465 275.795ZM156.444 274.056H159.795L160.671 269.562H157.32L156.444 274.056ZM166.93 274.005C166.93 272.659 167.193 271.449 167.717 270.374C168.25 269.299 168.987 268.47 169.926 267.886C170.874 267.302 171.953 267.01 173.164 267.01C175.034 267.01 176.545 267.657 177.696 268.952C178.855 270.247 179.435 271.969 179.435 274.119V274.284C179.435 275.621 179.177 276.823 178.661 277.89C178.153 278.948 177.421 279.773 176.464 280.365C175.516 280.958 174.425 281.254 173.189 281.254C171.327 281.254 169.816 280.606 168.657 279.312C167.506 278.017 166.93 276.303 166.93 274.17V274.005ZM169.292 274.284C169.292 275.808 169.643 277.031 170.345 277.953C171.056 278.876 172.004 279.337 173.189 279.337C174.382 279.337 175.33 278.871 176.033 277.94C176.735 277.001 177.086 275.689 177.086 274.005C177.086 272.498 176.727 271.28 176.007 270.349C175.296 269.409 174.348 268.939 173.164 268.939C172.004 268.939 171.069 269.401 170.358 270.323C169.647 271.246 169.292 272.566 169.292 274.284ZM193.984 274.284C193.984 276.375 193.506 278.059 192.549 279.337C191.593 280.615 190.298 281.254 188.665 281.254C186.997 281.254 185.685 280.725 184.729 279.667V286.281H182.38V267.264H184.526L184.64 268.787C185.597 267.602 186.925 267.01 188.626 267.01C190.277 267.01 191.58 267.632 192.537 268.876C193.501 270.12 193.984 271.851 193.984 274.068V274.284ZM191.635 274.018C191.635 272.469 191.305 271.246 190.645 270.349C189.985 269.451 189.079 269.003 187.928 269.003C186.506 269.003 185.44 269.633 184.729 270.895V277.458C185.431 278.711 186.506 279.337 187.954 279.337C189.079 279.337 189.972 278.893 190.632 278.004C191.301 277.107 191.635 275.778 191.635 274.018ZM200.167 263.938V267.264H202.731V269.079H200.167V277.598C200.167 278.148 200.281 278.562 200.509 278.842C200.738 279.113 201.127 279.248 201.677 279.248C201.948 279.248 202.32 279.197 202.794 279.096V281C202.177 281.169 201.576 281.254 200.992 281.254C199.942 281.254 199.151 280.937 198.618 280.302C198.084 279.667 197.818 278.766 197.818 277.598V269.079H195.317V267.264H197.818V263.938H200.167ZM208.038 281H205.689V267.264H208.038V281ZM205.499 263.62C205.499 263.239 205.613 262.918 205.841 262.655C206.078 262.393 206.425 262.262 206.882 262.262C207.339 262.262 207.686 262.393 207.923 262.655C208.16 262.918 208.279 263.239 208.279 263.62C208.279 264.001 208.16 264.318 207.923 264.572C207.686 264.826 207.339 264.953 206.882 264.953C206.425 264.953 206.078 264.826 205.841 264.572C205.613 264.318 205.499 264.001 205.499 263.62ZM211.186 274.005C211.186 272.659 211.448 271.449 211.973 270.374C212.506 269.299 213.243 268.47 214.182 267.886C215.13 267.302 216.209 267.01 217.419 267.01C219.29 267.01 220.801 267.657 221.952 268.952C223.111 270.247 223.691 271.969 223.691 274.119V274.284C223.691 275.621 223.433 276.823 222.917 277.89C222.409 278.948 221.677 279.773 220.72 280.365C219.772 280.958 218.681 281.254 217.445 281.254C215.583 281.254 214.072 280.606 212.913 279.312C211.762 278.017 211.186 276.303 211.186 274.17V274.005ZM213.547 274.284C213.547 275.808 213.899 277.031 214.601 277.953C215.312 278.876 216.26 279.337 217.445 279.337C218.638 279.337 219.586 278.871 220.289 277.94C220.991 277.001 221.342 275.689 221.342 274.005C221.342 272.498 220.983 271.28 220.263 270.349C219.552 269.409 218.604 268.939 217.419 268.939C216.26 268.939 215.325 269.401 214.614 270.323C213.903 271.246 213.547 272.566 213.547 274.284ZM228.858 267.264L228.934 268.99C229.984 267.67 231.355 267.01 233.047 267.01C235.95 267.01 237.415 268.647 237.44 271.923V281H235.091V271.91C235.083 270.92 234.854 270.188 234.406 269.714C233.966 269.24 233.276 269.003 232.336 269.003C231.575 269.003 230.906 269.206 230.331 269.612C229.755 270.019 229.306 270.552 228.985 271.212V281H226.636V267.264H228.858ZM248.98 277.356C248.98 276.722 248.739 276.231 248.256 275.884C247.782 275.528 246.949 275.224 245.755 274.97C244.57 274.716 243.627 274.411 242.924 274.056C242.23 273.7 241.714 273.277 241.375 272.786C241.045 272.295 240.88 271.711 240.88 271.034C240.88 269.909 241.354 268.956 242.302 268.178C243.259 267.399 244.477 267.01 245.958 267.01C247.516 267.01 248.777 267.412 249.742 268.216C250.715 269.02 251.202 270.048 251.202 271.301H248.84C248.84 270.658 248.565 270.103 248.015 269.638C247.473 269.172 246.788 268.939 245.958 268.939C245.104 268.939 244.435 269.126 243.953 269.498C243.47 269.87 243.229 270.357 243.229 270.958C243.229 271.525 243.453 271.952 243.902 272.24C244.35 272.528 245.159 272.803 246.327 273.065C247.503 273.328 248.455 273.641 249.183 274.005C249.911 274.369 250.448 274.809 250.795 275.325C251.151 275.833 251.329 276.455 251.329 277.191C251.329 278.419 250.838 279.405 249.856 280.149C248.874 280.886 247.6 281.254 246.035 281.254C244.934 281.254 243.961 281.059 243.115 280.67C242.268 280.281 241.604 279.739 241.122 279.045C240.648 278.342 240.411 277.585 240.411 276.772H242.759C242.802 277.56 243.115 278.186 243.699 278.651C244.291 279.108 245.07 279.337 246.035 279.337C246.923 279.337 247.634 279.159 248.167 278.804C248.709 278.44 248.98 277.957 248.98 277.356Z"
    fill="white" />
  <path
    d="M185.083 149H182.734V135.264H185.083V149ZM182.543 131.62C182.543 131.239 182.658 130.918 182.886 130.655C183.123 130.393 183.47 130.262 183.927 130.262C184.384 130.262 184.731 130.393 184.968 130.655C185.205 130.918 185.324 131.239 185.324 131.62C185.324 132.001 185.205 132.318 184.968 132.572C184.731 132.826 184.384 132.953 183.927 132.953C183.47 132.953 183.123 132.826 182.886 132.572C182.658 132.318 182.543 132.001 182.543 131.62ZM194.363 147.337C195.201 147.337 195.933 147.083 196.559 146.575C197.185 146.067 197.532 145.433 197.6 144.671H199.822C199.779 145.458 199.509 146.207 199.009 146.918C198.51 147.629 197.841 148.196 197.003 148.619C196.174 149.042 195.294 149.254 194.363 149.254C192.492 149.254 191.003 148.632 189.894 147.388C188.794 146.135 188.244 144.425 188.244 142.259V141.865C188.244 140.528 188.489 139.339 188.98 138.298C189.471 137.257 190.173 136.449 191.087 135.873C192.01 135.298 193.097 135.01 194.35 135.01C195.89 135.01 197.168 135.471 198.184 136.394C199.208 137.316 199.754 138.514 199.822 139.986H197.6C197.532 139.098 197.194 138.37 196.584 137.803C195.984 137.227 195.239 136.939 194.35 136.939C193.157 136.939 192.23 137.371 191.57 138.234C190.918 139.089 190.592 140.329 190.592 141.954V142.398C190.592 143.981 190.918 145.2 191.57 146.055C192.222 146.91 193.153 147.337 194.363 147.337ZM201.84 142.005C201.84 140.659 202.103 139.449 202.627 138.374C203.161 137.299 203.897 136.47 204.836 135.886C205.784 135.302 206.863 135.01 208.074 135.01C209.944 135.01 211.455 135.657 212.606 136.952C213.765 138.247 214.345 139.969 214.345 142.119V142.284C214.345 143.621 214.087 144.823 213.571 145.89C213.063 146.948 212.331 147.773 211.375 148.365C210.427 148.958 209.335 149.254 208.099 149.254C206.237 149.254 204.726 148.606 203.567 147.312C202.416 146.017 201.84 144.303 201.84 142.17V142.005ZM204.202 142.284C204.202 143.808 204.553 145.031 205.255 145.953C205.966 146.876 206.914 147.337 208.099 147.337C209.292 147.337 210.24 146.871 210.943 145.94C211.645 145.001 211.997 143.689 211.997 142.005C211.997 140.498 211.637 139.28 210.917 138.349C210.207 137.409 209.259 136.939 208.074 136.939C206.914 136.939 205.979 137.401 205.268 138.323C204.557 139.246 204.202 140.566 204.202 142.284ZM219.512 135.264L219.588 136.99C220.638 135.67 222.009 135.01 223.702 135.01C226.605 135.01 228.069 136.647 228.094 139.923V149H225.746V139.91C225.737 138.92 225.509 138.188 225.06 137.714C224.62 137.24 223.93 137.003 222.991 137.003C222.229 137.003 221.56 137.206 220.985 137.612C220.409 138.019 219.961 138.552 219.639 139.212V149H217.291V135.264H219.512ZM239.634 145.356C239.634 144.722 239.393 144.231 238.911 143.884C238.437 143.528 237.603 143.224 236.41 142.97C235.225 142.716 234.281 142.411 233.579 142.056C232.885 141.7 232.368 141.277 232.03 140.786C231.7 140.295 231.535 139.711 231.535 139.034C231.535 137.909 232.009 136.956 232.957 136.178C233.913 135.399 235.132 135.01 236.613 135.01C238.17 135.01 239.431 135.412 240.396 136.216C241.369 137.02 241.856 138.048 241.856 139.301H239.495C239.495 138.658 239.22 138.103 238.669 137.638C238.128 137.172 237.442 136.939 236.613 136.939C235.758 136.939 235.089 137.126 234.607 137.498C234.125 137.87 233.883 138.357 233.883 138.958C233.883 139.525 234.108 139.952 234.556 140.24C235.005 140.528 235.813 140.803 236.981 141.065C238.157 141.328 239.11 141.641 239.837 142.005C240.565 142.369 241.103 142.809 241.45 143.325C241.805 143.833 241.983 144.455 241.983 145.191C241.983 146.419 241.492 147.405 240.51 148.149C239.528 148.886 238.255 149.254 236.689 149.254C235.589 149.254 234.615 149.059 233.769 148.67C232.923 148.281 232.258 147.739 231.776 147.045C231.302 146.342 231.065 145.585 231.065 144.772H233.414C233.456 145.56 233.769 146.186 234.353 146.651C234.945 147.108 235.724 147.337 236.689 147.337C237.578 147.337 238.289 147.159 238.822 146.804C239.363 146.44 239.634 145.957 239.634 145.356Z"
    fill="white" />
  <path
    d="M73.7524 366.264L73.8286 367.99C74.8781 366.67 76.2492 366.01 77.9419 366.01C80.8449 366.01 82.3091 367.647 82.3345 370.923V380H79.9858V370.91C79.9774 369.92 79.7489 369.188 79.3003 368.714C78.8602 368.24 78.1704 368.003 77.231 368.003C76.4692 368.003 75.8006 368.206 75.2251 368.612C74.6496 369.019 74.201 369.552 73.8794 370.212V380H71.5308V366.264H73.7524ZM94.3569 380C94.2215 379.729 94.1115 379.247 94.0269 378.553C92.9351 379.687 91.6317 380.254 90.1167 380.254C88.7625 380.254 87.6496 379.873 86.7778 379.111C85.9146 378.341 85.4829 377.368 85.4829 376.191C85.4829 374.761 86.0246 373.652 87.1079 372.865C88.1997 372.07 89.7316 371.672 91.7036 371.672H93.9888V370.593C93.9888 369.772 93.7433 369.12 93.2524 368.638C92.7616 368.147 92.0379 367.901 91.0815 367.901C90.2437 367.901 89.5412 368.113 88.9741 368.536C88.4071 368.959 88.1235 369.471 88.1235 370.072H85.7622C85.7622 369.387 86.0034 368.727 86.4858 368.092C86.9767 367.449 87.6369 366.941 88.4663 366.568C89.3042 366.196 90.2225 366.01 91.2212 366.01C92.8039 366.01 94.0438 366.408 94.9409 367.203C95.8381 367.99 96.3035 369.078 96.3374 370.466V376.788C96.3374 378.049 96.4982 379.052 96.8198 379.797V380H94.3569ZM90.4595 378.21C91.1958 378.21 91.894 378.02 92.5542 377.639C93.2144 377.258 93.6925 376.763 93.9888 376.153V373.335H92.1479C89.2703 373.335 87.8315 374.177 87.8315 375.861C87.8315 376.598 88.077 377.173 88.5679 377.588C89.0588 378.003 89.6893 378.21 90.4595 378.21ZM102.228 366.264L102.292 367.787C103.299 366.602 104.657 366.01 106.367 366.01C108.288 366.01 109.596 366.746 110.29 368.219C110.747 367.559 111.339 367.025 112.067 366.619C112.803 366.213 113.671 366.01 114.669 366.01C117.682 366.01 119.214 367.605 119.265 370.796V380H116.917V370.936C116.917 369.954 116.692 369.222 116.244 368.739C115.795 368.248 115.042 368.003 113.984 368.003C113.112 368.003 112.389 368.265 111.813 368.79C111.237 369.306 110.903 370.005 110.81 370.885V380H108.449V370.999C108.449 369.002 107.471 368.003 105.516 368.003C103.976 368.003 102.922 368.659 102.355 369.971V380H100.006V366.264H102.228ZM128.52 380.254C126.658 380.254 125.143 379.645 123.975 378.426C122.807 377.199 122.223 375.561 122.223 373.513V373.081C122.223 371.718 122.481 370.504 122.998 369.438C123.522 368.363 124.25 367.525 125.181 366.924C126.121 366.314 127.136 366.01 128.228 366.01C130.014 366.01 131.402 366.598 132.392 367.774C133.382 368.951 133.877 370.635 133.877 372.827V373.805H124.572C124.606 375.159 124.999 376.255 125.752 377.093C126.514 377.922 127.479 378.337 128.647 378.337C129.476 378.337 130.179 378.168 130.754 377.829C131.33 377.491 131.833 377.042 132.265 376.483L133.7 377.601C132.549 379.369 130.822 380.254 128.52 380.254ZM128.228 367.939C127.28 367.939 126.485 368.286 125.841 368.98C125.198 369.666 124.8 370.631 124.648 371.875H131.529V371.697C131.461 370.504 131.139 369.581 130.564 368.93C129.988 368.27 129.21 367.939 128.228 367.939Z"
    fill="url(#paint3_linear)" />
  <path
    d="M31.9595 436.018C31.9595 433.91 32.4588 432.217 33.4575 430.939C34.4562 429.653 35.7638 429.01 37.3804 429.01C38.9884 429.01 40.2622 429.56 41.2017 430.66V423.5H43.5503V443H41.3921L41.2778 441.527C40.3384 442.678 39.0308 443.254 37.355 443.254C35.7638 443.254 34.4647 442.602 33.4575 441.299C32.4588 439.995 31.9595 438.294 31.9595 436.195V436.018ZM34.3081 436.284C34.3081 437.841 34.6297 439.06 35.2729 439.94C35.9162 440.821 36.8049 441.261 37.939 441.261C39.4285 441.261 40.5161 440.592 41.2017 439.255V432.945C40.4992 431.65 39.4201 431.003 37.9644 431.003C36.8133 431.003 35.9162 431.447 35.2729 432.336C34.6297 433.225 34.3081 434.541 34.3081 436.284ZM55.687 443C55.5516 442.729 55.4416 442.247 55.3569 441.553C54.2651 442.687 52.9618 443.254 51.4468 443.254C50.0926 443.254 48.9797 442.873 48.1079 442.111C47.2446 441.341 46.813 440.368 46.813 439.191C46.813 437.761 47.3547 436.652 48.438 435.865C49.5298 435.07 51.0617 434.672 53.0337 434.672H55.3188V433.593C55.3188 432.772 55.0734 432.12 54.5825 431.638C54.0916 431.147 53.368 430.901 52.4116 430.901C51.5737 430.901 50.8713 431.113 50.3042 431.536C49.7371 431.959 49.4536 432.471 49.4536 433.072H47.0923C47.0923 432.387 47.3335 431.727 47.8159 431.092C48.3068 430.449 48.967 429.941 49.7964 429.568C50.6343 429.196 51.5526 429.01 52.5513 429.01C54.134 429.01 55.3739 429.408 56.271 430.203C57.1681 430.99 57.6336 432.078 57.6675 433.466V439.788C57.6675 441.049 57.8283 442.052 58.1499 442.797V443H55.687ZM51.7896 441.21C52.5259 441.21 53.2241 441.02 53.8843 440.639C54.5444 440.258 55.0226 439.763 55.3188 439.153V436.335H53.478C50.6004 436.335 49.1616 437.177 49.1616 438.861C49.1616 439.598 49.4071 440.173 49.8979 440.588C50.3888 441.003 51.0194 441.21 51.7896 441.21ZM64.5356 425.938V429.264H67.1001V431.079H64.5356V439.598C64.5356 440.148 64.6499 440.562 64.8784 440.842C65.1069 441.113 65.4963 441.248 66.0464 441.248C66.3172 441.248 66.6896 441.197 67.1636 441.096V443C66.5457 443.169 65.9448 443.254 65.3608 443.254C64.3114 443.254 63.52 442.937 62.9868 442.302C62.4536 441.667 62.187 440.766 62.187 439.598V431.079H59.686V429.264H62.187V425.938H64.5356ZM75.5552 443.254C73.6932 443.254 72.1782 442.645 71.0103 441.426C69.8423 440.199 69.2583 438.561 69.2583 436.513V436.081C69.2583 434.718 69.5164 433.504 70.0327 432.438C70.5575 431.363 71.2853 430.525 72.2163 429.924C73.1558 429.314 74.1714 429.01 75.2632 429.01C77.049 429.01 78.437 429.598 79.4272 430.774C80.4175 431.951 80.9126 433.635 80.9126 435.827V436.805H71.6069C71.6408 438.159 72.0343 439.255 72.7876 440.093C73.5493 440.922 74.5142 441.337 75.6821 441.337C76.5116 441.337 77.214 441.168 77.7896 440.829C78.3651 440.491 78.8687 440.042 79.3003 439.483L80.7349 440.601C79.5838 442.369 77.8573 443.254 75.5552 443.254ZM75.2632 430.939C74.3153 430.939 73.5197 431.286 72.8765 431.98C72.2332 432.666 71.8354 433.631 71.6831 434.875H78.564V434.697C78.4963 433.504 78.1746 432.581 77.5991 431.93C77.0236 431.27 76.245 430.939 75.2632 430.939Z"
    fill="url(#paint4_linear)" />
  <path
    d="M42.1343 496.284C42.1343 498.375 41.6561 500.059 40.6997 501.337C39.7433 502.615 38.4484 503.254 36.8149 503.254C35.1476 503.254 33.8358 502.725 32.8794 501.667V508.281H30.5308V489.264H32.6763L32.7905 490.787C33.7469 489.602 35.0757 489.01 36.7769 489.01C38.4272 489.01 39.7306 489.632 40.687 490.876C41.6519 492.12 42.1343 493.851 42.1343 496.068V496.284ZM39.7856 496.018C39.7856 494.469 39.4556 493.246 38.7954 492.349C38.1353 491.451 37.2297 491.003 36.0786 491.003C34.6567 491.003 33.5903 491.633 32.8794 492.895V499.458C33.5819 500.711 34.6567 501.337 36.104 501.337C37.2297 501.337 38.1226 500.893 38.7827 500.004C39.4513 499.107 39.7856 497.778 39.7856 496.018ZM51.77 491.371C51.4146 491.312 51.0295 491.282 50.6147 491.282C49.0744 491.282 48.0291 491.938 47.479 493.25V503H45.1304V489.264H47.4155L47.4536 490.851C48.2238 489.623 49.3156 489.01 50.729 489.01C51.186 489.01 51.533 489.069 51.77 489.188V491.371ZM56.4927 503H54.144V489.264H56.4927V503ZM53.9536 485.62C53.9536 485.239 54.0679 484.918 54.2964 484.655C54.5334 484.393 54.8804 484.262 55.3374 484.262C55.7944 484.262 56.1414 484.393 56.3784 484.655C56.6154 484.918 56.7339 485.239 56.7339 485.62C56.7339 486.001 56.6154 486.318 56.3784 486.572C56.1414 486.826 55.7944 486.953 55.3374 486.953C54.8804 486.953 54.5334 486.826 54.2964 486.572C54.0679 486.318 53.9536 486.001 53.9536 485.62ZM65.7729 501.337C66.6108 501.337 67.3429 501.083 67.9692 500.575C68.5955 500.067 68.9425 499.433 69.0103 498.671H71.2319C71.1896 499.458 70.9188 500.207 70.4194 500.918C69.9201 501.629 69.2515 502.196 68.4136 502.619C67.5841 503.042 66.7039 503.254 65.7729 503.254C63.9025 503.254 62.4129 502.632 61.3042 501.388C60.2039 500.135 59.6538 498.425 59.6538 496.259V495.865C59.6538 494.528 59.8993 493.339 60.3901 492.298C60.881 491.257 61.5835 490.449 62.4976 489.873C63.4201 489.298 64.5076 489.01 65.7603 489.01C67.3006 489.01 68.5786 489.471 69.5942 490.394C70.6183 491.316 71.1642 492.514 71.2319 493.986H69.0103C68.9425 493.098 68.604 492.37 67.9946 491.803C67.3937 491.227 66.6489 490.939 65.7603 490.939C64.5669 490.939 63.6401 491.371 62.98 492.234C62.3283 493.089 62.0024 494.329 62.0024 495.954V496.398C62.0024 497.981 62.3283 499.2 62.98 500.055C63.6317 500.91 64.5627 501.337 65.7729 501.337ZM79.5728 503.254C77.7108 503.254 76.1958 502.645 75.0278 501.426C73.8599 500.199 73.2759 498.561 73.2759 496.513V496.081C73.2759 494.718 73.534 493.504 74.0503 492.438C74.575 491.363 75.3029 490.525 76.2339 489.924C77.1733 489.314 78.189 489.01 79.2808 489.01C81.0666 489.01 82.4546 489.598 83.4448 490.774C84.4351 491.951 84.9302 493.635 84.9302 495.827V496.805H75.6245C75.6584 498.159 76.0519 499.255 76.8052 500.093C77.5669 500.922 78.5317 501.337 79.6997 501.337C80.5291 501.337 81.2316 501.168 81.8071 500.829C82.3826 500.491 82.8862 500.042 83.3179 499.483L84.7524 500.601C83.6014 502.369 81.8748 503.254 79.5728 503.254ZM79.2808 490.939C78.3328 490.939 77.5373 491.286 76.894 491.98C76.2508 492.666 75.853 493.631 75.7007 494.875H82.5815V494.697C82.5138 493.504 82.1922 492.581 81.6167 491.93C81.0412 491.27 80.2625 490.939 79.2808 490.939Z"
    fill="url(#paint5_linear)" />
  <path
    d="M193.312 154.752L179.73 154.752M25.0636 198.379L96.4816 198.379C174.472 198.379 122.164 154.958 179.73 154.752M179.73 154.752C122.164 154.958 179.73 104.177 96.4816 104.177"
    stroke="url(#paint6_linear)" stroke-width="5" stroke-linecap="round" />
  <path
    d="M666.479 260.969L680.061 260.969M834.727 304.597L763.309 304.597C685.319 304.597 737.627 261.175 680.061 260.969M680.061 260.969C737.627 261.175 680.061 210.395 763.309 210.395"
    stroke="#E9B148" stroke-width="5" stroke-linecap="round" />
  <path
    d="M657.846 460.578L671.428 460.579M826.094 504.206L754.676 504.206C676.686 504.206 728.994 460.785 671.428 460.579M671.428 460.579C728.994 460.785 671.428 410.004 754.676 410.004"
    stroke="#E9B148" stroke-width="5" stroke-linecap="round" />
  <defs>
    <linearGradient id="paint0_linear" x1="199.01" y1="404.294" x2="46" y2="410" gradientUnits="userSpaceOnUse">
      <stop stop-color="#E9B148" />
      <stop offset="1" stop-color="#E9B148" stop-opacity="0" />
    </linearGradient>
    <linearGradient id="paint1_linear" x1="206.829" y1="427.883" x2="28.0599" y2="364.772"
      gradientUnits="userSpaceOnUse">
      <stop stop-color="#E9B148" />
      <stop offset="1" stop-color="#E9B148" stop-opacity="0" />
    </linearGradient>
    <linearGradient id="paint2_linear" x1="220.33" y1="468.616" x2="111.995" y2="381.512"
      gradientUnits="userSpaceOnUse">
      <stop stop-color="#E9B148" />
      <stop offset="1" stop-color="#E9B148" stop-opacity="0" />
    </linearGradient>
    <linearGradient id="paint3_linear" x1="148.5" y1="380" x2="52" y2="382" gradientUnits="userSpaceOnUse">
      <stop stop-color="white" />
      <stop offset="1" stop-color="white" stop-opacity="0" />
    </linearGradient>
    <linearGradient id="paint4_linear" x1="100.941" y1="446.364" x2="14.9097" y2="447.569"
      gradientUnits="userSpaceOnUse">
      <stop stop-color="white" />
      <stop offset="1" stop-color="white" stop-opacity="0" />
    </linearGradient>
    <linearGradient id="paint5_linear" x1="106.644" y1="503" x2="11.1921" y2="504.957" gradientUnits="userSpaceOnUse">
      <stop stop-color="white" />
      <stop offset="1" stop-color="white" stop-opacity="0" />
    </linearGradient>
    <linearGradient id="paint6_linear" x1="189.774" y1="156.503" x2="70.1603" y2="152.998"
      gradientUnits="userSpaceOnUse">
      <stop offset="0.00789541" stop-color="#E9B148" />
      <stop offset="1" stop-color="#E9B148" stop-opacity="0" />
    </linearGradient>
  </defs>
</svg>
